<svg width="178" height="47" viewBox="0 0 178 47" fill="none" xmlns="http://www.w3.org/2000/svg">
<path d="M119.873 17.9062H121.384L124.049 7.13364L126.697 17.9062H128.208L132.563 4.09521H131.035L127.526 15.144L124.812 4.09521H123.301L120.555 15.1278L117.062 4.09521H115.535L119.873 17.8737V17.9062Z" fill="#222222"/>
<path d="M142.058 5.55756V4.09521H133.999V17.9062H142.204V16.4439H135.461V11.7319H141.912V10.2695H135.461V5.55756H142.058Z" fill="#222222"/>
<path d="M144.066 17.9062H149.818C152.093 17.9062 153.718 16.2976 153.718 14.0391C153.718 12.5443 152.824 11.3744 151.394 10.822C152.483 10.2533 153.101 9.19717 153.101 7.76732C153.101 5.47632 151.573 4.09521 149.201 4.09521H144.066V17.9062ZM149.201 5.55756C150.68 5.55756 151.622 6.45121 151.622 7.86481C151.622 9.3109 150.745 10.2208 149.347 10.2208H145.529V5.55756H149.201ZM149.818 16.4439H145.529V11.6019H149.347C151.102 11.6019 152.239 12.6255 152.239 13.9742C152.239 15.4202 151.281 16.4439 149.818 16.4439Z" fill="#222222"/>
<path d="M117.598 44.0329V37.8585H124.049V36.3962H117.598V31.6842H124.195V30.2219H116.136V44.0329H117.598Z" fill="#222222"/>
<path d="M125.911 37.1274C125.911 41.2382 128.511 44.1304 132.2 44.1304C135.904 44.1304 138.504 41.2382 138.504 37.1274C138.504 33.0166 135.904 30.1406 132.2 30.1406C128.511 30.1406 125.911 33.0328 125.911 37.1274ZM132.2 31.5705C135.059 31.5705 137.042 33.8452 137.042 37.1274C137.042 40.3933 135.059 42.6843 132.2 42.6843C129.372 42.6843 127.374 40.4095 127.374 37.1274C127.374 33.8615 129.356 31.5705 132.2 31.5705Z" fill="#222222"/>
<path d="M150.83 34.9989H152.407C151.643 32.0092 149.433 30.1406 146.395 30.1406C142.658 30.1406 140.172 32.9353 140.172 37.1274C140.172 41.3032 142.674 44.1141 146.395 44.1141C149.417 44.1141 151.74 42.2456 152.407 39.2559H150.847C150.229 41.3032 148.556 42.5868 146.378 42.5868C143.551 42.5868 141.65 40.3933 141.65 37.1274C141.65 33.8452 143.535 31.668 146.362 31.668C148.507 31.668 150.116 32.9028 150.83 34.9989Z" fill="#222222"/>
<path d="M154.262 37.1274C154.262 41.7094 156.18 44.1304 159.787 44.1304C163.378 44.1304 165.295 41.6931 165.295 37.1274V30.2219H163.833V37.1274C163.833 40.8807 162.517 42.6843 159.787 42.6843C157.025 42.6843 155.725 40.897 155.725 37.1274V30.2219H154.262V37.1274Z" fill="#222222"/>
<path d="M167.341 39.9708C167.471 42.5543 169.665 44.1304 172.297 44.1304C175.043 44.1141 176.977 42.3756 177.009 40.2308C177.042 37.4361 174.637 36.6237 172.541 36.1525C170.786 35.73 169.21 35.4701 169.242 33.7152C169.275 32.3016 170.575 31.538 172.248 31.538C173.824 31.538 175.108 32.3829 175.222 33.8615H176.684C176.603 31.4567 174.604 30.1406 172.248 30.1406C169.811 30.1406 167.813 31.2943 167.78 33.7315C167.78 36.6887 170.169 37.0136 172.297 37.5336C173.906 37.9398 175.563 38.4435 175.547 40.247C175.514 41.6444 174.166 42.733 172.281 42.733C170.445 42.733 168.95 41.6119 168.804 39.9708H167.341Z" fill="#222222"/>
<path d="M23.0064 25.6149L27.6227 6.19799L33.644 28.1737L28.6765 46.4868H14.677L0.828125 0.177246H16.1823L23.0064 25.6149ZM55.722 46.4868H41.02L28.3252 0.177246H43.8801L55.722 46.4868ZM55.8725 0.177246H69.9221L57.3778 44.0785L51.1056 19.3935L55.8725 0.177246Z" fill="#222222"/>
<path d="M67.2624 17.2862H79.2045L82.165 0.177246H96.1644L88.0357 46.2861H59.2842L63.198 34.4955H76.1939L77.2476 28.3242H65.3054L67.2624 17.2862Z" fill="#222222"/>
<path d="M106.959 0.177246H106.156V46.4868H106.959V0.177246Z" fill="#222222"/>
</svg>
