<svg width="21" height="21" viewBox="0 0 21 21" fill="none" xmlns="http://www.w3.org/2000/svg">
<path d="M20.7638 6.57023C20.7526 5.72941 20.5952 4.89695 20.2986 4.11009C20.0415 3.44637 19.6487 2.8436 19.1453 2.34028C18.642 1.83697 18.0393 1.44417 17.3755 1.187C16.5988 0.895421 15.7782 0.737759 14.9487 0.720728C13.8807 0.67299 13.5421 0.659668 10.8311 0.659668C8.12003 0.659668 7.77254 0.659668 6.71233 0.720728C5.88321 0.737884 5.063 0.895544 4.2866 1.187C3.62278 1.44399 3.01992 1.83672 2.51658 2.34006C2.01324 2.8434 1.62051 3.44627 1.36351 4.11009C1.07135 4.88624 0.914031 5.70664 0.898351 6.53582C0.850614 7.60491 0.836182 7.94352 0.836182 10.6546C0.836182 13.3656 0.836182 13.712 0.898351 14.7733C0.915004 15.6037 1.07154 16.423 1.36351 17.2013C1.62094 17.8649 2.01396 18.4675 2.51747 18.9706C3.02098 19.4737 3.6239 19.8663 4.28771 20.1232C5.06198 20.4265 5.88233 20.5955 6.71344 20.6228C7.78254 20.6705 8.12114 20.685 10.8322 20.685C13.5432 20.685 13.8907 20.685 14.9509 20.6228C15.7804 20.6065 16.601 20.4492 17.3778 20.1576C18.0413 19.9002 18.6439 19.5073 19.1472 19.004C19.6505 18.5007 20.0434 17.8981 20.3009 17.2346C20.5928 16.4574 20.7494 15.6381 20.766 14.8066C20.8138 13.7386 20.8282 13.4 20.8282 10.6879C20.826 7.97682 20.826 7.63267 20.7638 6.57023V6.57023ZM10.8244 15.7813C7.98903 15.7813 5.69208 13.4844 5.69208 10.649C5.69208 7.81363 7.98903 5.51668 10.8244 5.51668C12.1856 5.51668 13.491 6.0574 14.4535 7.0199C15.416 7.9824 15.9567 9.28783 15.9567 10.649C15.9567 12.0102 15.416 13.3156 14.4535 14.2781C13.491 15.2406 12.1856 15.7813 10.8244 15.7813V15.7813ZM16.161 6.5236C16.0038 6.52375 15.8481 6.49289 15.7029 6.4328C15.5576 6.37271 15.4256 6.28456 15.3144 6.1734C15.2033 6.06225 15.1151 5.93026 15.055 5.78499C14.995 5.63973 14.9641 5.48404 14.9642 5.32684C14.9642 5.16975 14.9952 5.0142 15.0553 4.86907C15.1154 4.72394 15.2035 4.59207 15.3146 4.48099C15.4257 4.36991 15.5576 4.2818 15.7027 4.22168C15.8478 4.16157 16.0034 4.13063 16.1605 4.13063C16.3175 4.13063 16.4731 4.16157 16.6182 4.22168C16.7634 4.2818 16.8952 4.36991 17.0063 4.48099C17.1174 4.59207 17.2055 4.72394 17.2656 4.86907C17.3257 5.0142 17.3567 5.16975 17.3567 5.32684C17.3567 5.9885 16.8216 6.5236 16.161 6.5236Z" fill="white"/>
<path d="M10.8243 13.9826C12.6656 13.9826 14.1582 12.49 14.1582 10.6488C14.1582 8.80756 12.6656 7.31494 10.8243 7.31494C8.98309 7.31494 7.49048 8.80756 7.49048 10.6488C7.49048 12.49 8.98309 13.9826 10.8243 13.9826Z" fill="white"/>
</svg>
