<svg width="37" height="37" viewBox="0 0 37 37" fill="none" xmlns="http://www.w3.org/2000/svg">
<path d="M33.2992 4.73729C33.2872 4.67958 33.2591 4.62649 33.218 4.58427C33.1768 4.54204 33.1245 4.51243 33.0672 4.49893C29.2436 3.56377 20.4109 6.89588 15.6205 11.6828C14.7668 12.5295 13.9883 13.4489 13.2939 14.4306C11.8173 14.297 10.3408 14.4095 9.08358 14.9579C5.5335 16.5188 4.50061 20.5956 4.21233 22.3456C4.19671 22.4415 4.20338 22.5397 4.23183 22.6326C4.26027 22.7255 4.30973 22.8106 4.37636 22.8814C4.44299 22.9521 4.52501 23.0065 4.61606 23.0404C4.70711 23.0743 4.80474 23.0868 4.90139 23.0769L10.6016 22.4511C10.6056 22.8811 10.6314 23.3105 10.679 23.7378C10.7087 24.0332 10.8405 24.3089 11.0516 24.5176L13.2587 26.7247C13.4676 26.936 13.7436 27.0678 14.0392 27.0974C14.464 27.1447 14.8908 27.1706 15.3182 27.1747L14.6931 32.87C14.6834 32.9666 14.6959 33.064 14.7298 33.1549C14.7638 33.2458 14.8181 33.3277 14.8887 33.3942C14.9594 33.4608 15.0443 33.5102 15.1371 33.5386C15.2298 33.5671 15.3279 33.5739 15.4237 33.5584C17.1744 33.2771 21.2596 32.2442 22.8114 28.6949C23.3598 27.4363 23.4723 25.9674 23.3458 24.4979C24.3303 23.8041 25.2524 23.0256 26.1013 22.1713C30.9093 17.39 34.2203 8.75143 33.2992 4.73729ZM21.8277 15.9774C21.4078 15.5576 21.1218 15.0226 21.0059 14.4402C20.89 13.8578 20.9494 13.2541 21.1766 12.7054C21.4038 12.1568 21.7886 11.6878 22.2824 11.3579C22.7761 11.028 23.3566 10.8519 23.9505 10.8519C24.5443 10.8519 25.1248 11.028 25.6185 11.3579C26.1123 11.6878 26.4971 12.1568 26.7243 12.7054C26.9515 13.2541 27.011 13.8578 26.8951 14.4402C26.7792 15.0226 26.4931 15.5576 26.0732 15.9774C25.7946 16.2566 25.4638 16.478 25.0995 16.6291C24.7353 16.7802 24.3448 16.858 23.9505 16.858C23.5561 16.858 23.1656 16.7802 22.8014 16.6291C22.4371 16.478 22.1063 16.2566 21.8277 15.9774V15.9774Z" stroke="white" stroke-width="1.5" stroke-linecap="round" stroke-linejoin="round"/>
<path d="M8.53719 25.7036C7.83625 25.7897 7.18416 26.1074 6.68445 26.6064C5.44555 27.8496 5.32812 32.4536 5.32812 32.4536C5.32812 32.4536 9.935 32.3362 11.1746 31.0959C11.6756 30.597 11.9939 29.9438 12.0781 29.2417" stroke="white" stroke-width="1.5" stroke-linecap="round" stroke-linejoin="round"/>
</svg>
