<svg width="23" height="15" viewBox="0 0 23 15" fill="none" xmlns="http://www.w3.org/2000/svg">
<path d="M9.41526 6.92984C9.41526 6.92984 11.428 6.77346 11.428 4.31392C11.428 1.85118 9.78121 0.65332 7.694 0.65332H0.828125V14.4042H7.694C7.694 14.4042 11.8865 14.5415 11.8865 10.3447C11.8854 10.3436 12.0684 6.92984 9.41526 6.92984ZM3.85362 3.09585H7.694C7.694 3.09585 8.62804 3.09585 8.62804 4.52562C8.62804 5.95752 8.07911 6.16496 7.45571 6.16496H3.85362V3.09585ZM7.49933 11.9596H3.85362V8.28409H7.694C7.694 8.28409 9.08548 8.26494 9.08548 10.1724C9.08548 11.7809 8.04613 11.9479 7.49933 11.9596ZM17.4758 4.15009C12.4003 4.15009 12.4046 9.43407 12.4046 9.43407C12.4046 9.43407 12.0578 14.6904 17.4758 14.6904C17.4758 14.6904 21.9896 14.9606 21.9896 11.0341H19.6683C19.6683 11.0341 19.7449 12.5138 17.5535 12.5138C17.5535 12.5138 15.2301 12.6755 15.2301 10.1202H22.063C22.0641 10.1192 22.8172 4.15009 17.4758 4.15009ZM19.5407 8.28409H15.2067C15.2067 8.28409 15.4897 6.16496 17.5279 6.16496C19.5662 6.16496 19.5407 8.28409 19.5407 8.28409ZM20.08 1.46076H14.6365V3.15648H20.08V1.46076Z" fill="white"/>
</svg>
