<svg width="19" height="18" viewBox="0 0 19 18" fill="none" xmlns="http://www.w3.org/2000/svg">
<path d="M4.91597 17.6604V6.18575H1.05587V17.6604H4.91597ZM2.98642 4.61814C4.3325 4.61814 5.17038 3.73702 5.17038 2.63592C5.1453 1.50998 4.33256 0.65332 3.01196 0.65332C1.69158 0.65332 0.828125 1.51 0.828125 2.63592C0.828125 3.73708 1.66579 4.61814 2.96122 4.61814H2.9863H2.98642ZM7.05252 17.6604H10.9126V11.2524C10.9126 10.9094 10.9377 10.5669 11.0396 10.3217C11.3187 9.6365 11.9538 8.92683 13.0202 8.92683C14.417 8.92683 14.9758 9.97909 14.9758 11.5216V17.6603H18.8356V11.0809C18.8356 7.5563 16.9313 5.91636 14.3915 5.91636C12.3092 5.91636 11.3949 7.06641 10.8869 7.84971H10.9127V6.18552H7.05261C7.10327 7.26223 7.05261 17.6602 7.05261 17.6602L7.05252 17.6604Z" fill="white"/>
</svg>
